<svg xmlns="http://www.w3.org/2000/svg" width="512" height="512" viewBox="0 0 512 512">
  <defs>
    <linearGradient id="logoGradient" x1="0%" y1="0%" x2="100%" y2="100%">
      <stop offset="0%" style="stop-color:#0EA5E9;stop-opacity:1" />
      <stop offset="100%" style="stop-color:#1E40AF;stop-opacity:1" />
    </linearGradient>
  </defs>
  
  <!-- Rounded square background with gradient (12px radius scaled to 512px = 128px) -->
  <rect x="0" y="0" width="512" height="512" rx="128" ry="128" fill="url(#logoGradient)"/>
  
  <!-- Lucide Plane icon (white, centered in canvas, 10% smaller)
       Canvas: 512x512, Center: (256, 256)
       Icon original size: 24x24, center at (12, 12)
       Scale: 21.006 (23.34 * 0.9), Icon scaled size: ~504px
       Position calculation: 256 - (12 * 21.006) = 3.93 -->
  <g transform="translate(3.93, 3.93) scale(21.006)" fill="none" stroke="white" stroke-width="2" stroke-linecap="round" stroke-linejoin="round">
    <path d="M17.8 19.2 16 11l3.5-3.5C21 6 21.5 4 21 3c-1-.5-3 0-4.5 1.5L13 8 4.8 6.2c-.5-.1-.9.1-1.1.5l-.3.5c-.2.5-.1 1 .3 1.3L9 12l-2 3H4l-1 1 3 2 2 3 1-1v-3l3-2 3.5 5.3c.3.4.8.5 1.3.3l.5-.2c.4-.3.6-.7.5-1.2z"/>
  </g>
</svg>

