<svg xmlns="http://www.w3.org/2000/svg"
shape-rendering="geometricPrecision"
width="4000" height="4000" viewBox="0 0 754 754">
  <metadata>null</metadata>

<path d="
M 34.867 520.937
C 37.062 518.329 39.892 516.175 42.415 513.894
C 43.507 512.908 44.568 511.544 46.01 511.105
C 49.349 514.481 52.619 517.739 56.693 520.245
C 64.653 525.14 74.643 526.716 83.792 525.134
C 91.748 523.759 99.654 518.891 99.641 509.968
C 99.624 498.35 84.428 495.175 75.65 492.973
C 62.473 489.667 46.351 485.461 41.368 471.08
C 40.575 468.791 40.047 466.469 39.858 464.053
C 39.599 460.738 39.821 457.303 40.473 454.042
C 41.027 451.276 42.043 448.734 43.39 446.266
C 52.584 429.423 75.986 427.269 92.555 432.524
C 98.078 434.276 103.135 437.036 107.75 440.525
C 109.157 441.589 111.856 443.229 112.168 445.078
C 111.04 448.328 107.062 450.964 104.714 453.361
C 103.909 454.183 102.656 455.789 101.445 455.988
C 100.435 456.153 99.22 454.723 98.545 454.124
C 96.294 452.129 93.787 450.431 91.087 449.096
C 83.847 445.517 74.448 444.118 66.624 446.577
C 60.733 448.429 56.026 453.082 55.752 459.492
C 55.224 471.867 69.677 475.01 79.132 477.181
C 93.461 480.471 110.618 486.314 114.632 502.358
C 115.306 505.056 115.519 507.928 115.43 510.703
C 115.327 513.891 114.913 516.982 113.866 520.007
C 106.921 540.059 81.958 543.995 63.694 539.975
C 60.212 539.209 56.876 538.105 53.589 536.739
C 48.054 534.439 42.981 530.965 38.592 526.905
C 37.041 525.47 34.835 523.64 34.496 521.447
C 34.62 521.277 34.743 521.107 34.867 520.937 Z"
opacity="1" fill="rgb(22,49,66)" fill-rule="evenodd" />
<path d="
M 128.409 426.954
C 129.332 425.905 130.77 425.919 132.078 425.893
C 134.923 425.834 137.781 425.861 140.628 425.871
C 141.935 425.876 143.326 426.132 143.627 427.65
C 143.922 429.137 143.608 430.979 143.621 432.503
C 143.655 436.336 143.636 440.168 143.625 444.001
C 143.597 453.393 144.399 463.19 143.462 472.531
C 145.069 471.465 146.318 469.741 147.948 468.611
C 150.744 466.673 153.845 465.24 157.134 464.377
C 161.003 463.361 165.289 463.112 169.267 463.457
C 172.461 463.735 175.595 464.57 178.54 465.819
C 180.738 466.751 182.775 468.067 184.678 469.497
C 199.054 480.309 195.639 500.853 195.646 516.499
C 195.649 521.499 195.657 526.499 195.649 531.499
C 195.645 533.868 196.03 536.6 195.447 538.902
C 192.992 541.387 187.094 540.083 183.893 540.138
C 182.579 540.161 180.795 540.102 180.279 538.585
C 179.89 537.441 180.134 535.908 180.15 534.717
C 180.183 532.145 180.202 529.574 180.201 527.003
C 180.197 518.247 180.103 509.492 180.117 500.737
C 180.127 494.659 180.269 488.144 175.791 483.412
C 169.124 476.365 154.589 476.893 148.471 484.49
C 143.969 490.08 143.603 496.792 143.58 503.666
C 143.554 511.444 143.579 519.223 143.592 527.002
C 143.598 530.76 144.172 535.035 143.478 538.727
C 142.528 540.153 140.871 540.132 139.331 540.095
C 137.034 540.04 134.73 539.907 132.432 539.951
C 130.995 539.978 129.686 540.085 128.592 539.014
C 127.467 536.916 128.239 532.868 128.235 530.503
C 128.224 523.669 128.21 516.835 128.205 510.002
C 128.191 491.169 128.193 472.336 128.18 453.503
C 128.175 447.502 128.201 441.502 128.216 435.502
C 128.222 432.829 127.719 429.537 128.409 426.954 Z"
opacity="1" fill="rgb(23,50,67)" fill-rule="evenodd" />
<path d="
M 208.436 496.098
C 210.081 487.529 213.326 479.712 219.775 473.58
C 233.783 460.26 257.448 459.513 271.727 472.867
C 278.992 479.661 282.261 488.719 282.643 498.513
C 282.73 500.742 283.533 505.945 281.623 507.589
C 280.703 508.381 278.537 508.226 277.426 508.235
C 273.784 508.268 270.139 508.231 266.497 508.226
C 252.341 508.205 238.102 508.975 223.963 508.585
C 227.649 523.569 244.371 529.921 258.201 524.83
C 261.014 523.794 263.397 522.187 265.728 520.334
C 266.942 519.369 267.97 517.716 269.592 517.601
C 272.278 519.343 274.801 521.511 277.328 523.48
C 278.227 524.179 279.758 525.174 279.727 526.431
C 279.067 529.179 275.15 531.459 273.045 533.094
C 265.157 539.219 255.206 541.794 245.298 541.339
C 229.377 540.608 214.799 530.677 209.855 515.249
C 207.913 509.19 207.575 502.38 208.436 496.098 Z
M 224.867 494.037
C 224.668 494.836 224.751 494.422 224.625 495.279
C 231.047 494.95 237.571 495.273 244.005 495.265
C 251.73 495.256 259.525 494.958 267.241 495.216
C 265.211 481.365 248.847 475.1 236.81 480.181
C 230.646 482.782 227.069 487.971 224.867 494.037 Z"
opacity="1" fill="rgb(23,50,67)" fill-rule="evenodd" />
<path d="
M 219.387 380.525
C 219.853 379.806 220.334 378.99 221.127 378.588
C 222.108 378.09 223.521 378.346 224.58 378.341
C 227.222 378.329 229.864 378.346 232.506 378.346
C 244.84 378.343 257.174 378.396 269.507 378.409
C 304.173 378.447 338.839 378.368 373.505 378.317
C 383.471 378.302 393.437 378.404 403.404 378.394
C 408.876 378.388 414.618 379.119 419.822 377.131
C 425.404 374.999 429.901 369.771 431.072 363.909
C 431.903 359.744 431.352 355.225 431.332 351.001
C 431.298 344.053 431.326 337.104 431.273 330.156
C 431.25 327.215 431.221 324.272 431.252 321.331
C 431.267 319.907 431.075 318.32 431.843 317.061
C 433.652 314.941 437.638 314.64 438.346 318.037
C 438.754 319.99 438.354 322.243 438.329 324.229
C 438.276 328.485 438.288 332.743 438.294 337
C 438.301 342.313 438.315 347.626 438.343 352.939
C 438.363 356.729 438.744 360.672 438.103 364.426
C 437.042 370.637 433.762 376.119 428.829 380.001
C 427.016 381.428 424.92 382.699 422.792 383.594
C 416.969 386.044 411.062 385.626 404.879 385.599
C 396.755 385.565 388.63 385.601 380.506 385.583
C 350.504 385.517 320.5 385.672 290.498 385.687
C 272.036 385.696 253.572 385.598 235.11 385.663
C 232.018 385.674 228.925 385.701 225.832 385.684
C 224.389 385.675 222.513 385.911 221.145 385.369
C 219.334 384.651 218.756 382.171 219.387 380.525 Z"
opacity="1" fill="rgb(22,51,69)" fill-rule="evenodd" />
<path d="
M 262.421 309.031
C 264.117 305.884 268.686 306.482 271.719 306.643
C 272.797 306.701 274.004 306.714 274.982 307.224
C 276.817 308.182 277.291 311.061 276.283 312.781
C 274.617 315.625 269.454 314.854 266.702 314.57
C 265.847 314.481 264.891 314.418 264.098 314.054
C 262.245 313.202 261.434 310.863 262.421 309.031 Z"
opacity="1" fill="rgb(239,115,61)" fill-rule="evenodd" />
<path d="
M 262.825 360.511
C 263.96 357.586 267.714 357.932 270.303 357.926
C 277.537 357.909 284.772 357.882 292.006 357.857
C 322.506 357.753 353.006 357.906 383.505 357.78
C 391.837 357.745 400.171 357.647 408.504 357.708
C 411.483 357.729 415.898 357.347 415.953 361.492
C 416.008 365.621 411.405 365.387 408.501 365.385
C 400.001 365.381 391.501 365.374 383.002 365.382
C 351.997 365.413 321.004 365.518 290 365.503
C 282.485 365.499 274.883 365.849 267.378 365.478
C 264.861 365.354 261.605 363.655 262.825 360.511 Z"
opacity="1" fill="rgb(237,117,58)" fill-rule="evenodd" />
<path d="
M 266.452 218.104
C 268.069 208.698 274.342 201.601 283.679 199.231
C 286.402 198.54 289.292 198.709 292.076 198.7
C 296.072 198.687 300.068 198.682 304.063 198.678
C 317.378 198.664 330.692 198.658 344.006 198.645
C 350.173 198.639 356.341 198.6 362.508 198.669
C 366.367 198.713 369.706 198.286 372.949 200.673
C 382.754 207.887 392.347 215.427 401.97 222.883
C 404.814 225.086 411.491 229.686 406.016 232.952
C 402.933 234.081 398.348 233.256 395.071 233.253
C 385.566 233.244 374.859 234.82 368.873 225.743
C 365.248 220.247 366.133 212.685 365.888 206.397
C 365.371 205.969 364.182 206.167 363.503 206.159
C 361.337 206.134 359.17 206.159 357.003 206.151
C 348.837 206.121 340.67 206.099 332.504 206.113
C 320.392 206.134 308.26 206.387 296.15 206.121
C 289.056 205.965 281.839 205.416 276.836 211.405
C 272.293 216.843 273.591 224.398 273.599 231
C 273.617 245.333 273.565 259.666 273.575 273.999
C 273.579 278.833 273.541 283.67 273.598 288.503
C 273.625 290.781 274.004 293.481 272.046 295.127
C 270.115 296.75 267.15 295.119 266.506 293.024
C 266.044 291.521 266.231 289.768 266.236 288.217
C 266.246 285.146 266.272 282.074 266.273 279.003
C 266.275 265.836 266.265 252.67 266.255 239.503
C 266.25 232.445 265.703 225.127 266.452 218.104 Z
M 372.916 211.619
C 372.523 216.414 372.963 223.479 378.256 225.558
C 380.606 226.481 384.028 225.778 386.502 225.728
C 388.138 225.695 389.787 225.674 391.423 225.695
C 391.841 225.701 392.677 225.879 393.053 225.662
C 389.458 222.18 385.103 219.186 381.091 216.181
C 378.477 214.224 375.98 211.68 372.943 210.476
C 372.934 210.857 372.925 211.238 372.916 211.619 Z"
opacity="1" fill="rgb(24,51,69)" fill-rule="evenodd" />
<path d="
M 266.428 328.572
C 267.413 325.453 272.164 324.787 273.339 328.186
C 273.932 329.901 273.489 332.087 273.442 333.867
C 273.347 337.406 274.601 342.491 273.216 345.792
C 271.968 348.767 267.769 348.002 266.576 345.398
C 265.925 343.977 266.204 342.023 266.214 340.502
C 266.232 337.836 266.258 335.169 266.253 332.503
C 266.25 331.27 266.053 329.762 266.428 328.572 Z"
opacity="1" fill="rgb(23,51,68)" fill-rule="evenodd" />
<path d="
M 286.877 221.573
C 288.193 215.629 297.861 217.365 296.509 223.271
C 295.12 229.339 285.522 227.698 286.877 221.573 Z"
opacity="1" fill="rgb(25,49,69)" fill-rule="evenodd" />
<path d="
M 287.94 310.596
C 288.45 307.2 291.706 306.741 294.5 306.708
C 300.833 306.635 307.172 306.683 313.506 306.728
C 341.084 306.923 368.68 306.812 396.258 306.589
C 400.927 306.552 405.768 306.691 410.402 306.077
C 419.551 304.865 428.408 301.361 435.746 295.714
C 439.092 293.138 442.007 290.23 444.795 287.075
C 446.233 285.447 447.259 283.442 448.96 282.047
C 450.973 280.395 454.446 280.602 454.959 283.62
C 455.428 286.374 452.751 288.906 451.168 290.854
C 446.318 296.823 440.562 302.029 433.98 306.018
C 419.953 314.518 404.304 314.296 388.501 314.277
C 373.001 314.258 357.501 314.372 342.001 314.361
C 328.016 314.35 314.034 314.59 300.055 314.595
C 297.158 314.596 293.133 315.134 290.38 314.114
C 288.961 313.588 287.699 312.201 287.94 310.596 Z"
opacity="1" fill="rgb(240,111,59)" fill-rule="evenodd" />
<path d="
M 289.86 250.052
C 290.075 249.421 289.94 249.731 290.269 249.126
C 292.143 246.929 294.974 247.215 297.606 247.254
C 302.239 247.323 306.87 247.327 311.502 247.365
C 313.649 247.383 316.002 247.092 318.117 247.497
C 320.402 247.934 321.757 250.626 320.565 252.692
C 319.116 255.205 315.468 254.662 312.998 254.678
C 306.826 254.721 300.593 254.975 294.427 254.678
C 291.622 254.543 289.419 253.156 289.86 250.052 Z"
opacity="1" fill="rgb(26,50,69)" fill-rule="evenodd" />
<path d="
M 289.978 264.629
C 290 263.693 290.15 262.871 290.711 262.105
C 292.504 260.154 295.63 260.636 298.063 260.631
C 304.404 260.615 311.298 259.78 317.573 260.77
C 320.168 261.179 321.781 263.548 320.552 266.055
C 319.35 268.505 316.18 268.27 313.841 268.279
C 307.841 268.301 301.806 268.512 295.808 268.316
C 293.192 268.23 290.228 267.822 289.978 264.629 Z"
opacity="1" fill="rgb(24,50,69)" fill-rule="evenodd" />
<path d="
M 289.904 277.612
C 290.197 274.24 293.528 274.165 296.177 274.18
C 302.897 274.22 309.67 273.944 316.383 274.214
C 318.8 274.311 321.328 275.647 320.956 278.459
C 320.507 281.849 317.157 281.832 314.485 281.888
C 308.124 282.02 301.705 282.033 295.348 281.768
C 292.693 281.657 289.613 280.957 289.904 277.612 Z"
opacity="1" fill="rgb(25,53,68)" fill-rule="evenodd" />
<path d="
M 289.772 290.519
C 290.574 287.693 293.847 287.781 296.198 287.765
C 302.76 287.719 309.393 287.524 315.948 287.841
C 318.421 287.961 321.996 288.977 320.994 292.208
C 320.014 295.371 316.723 295.259 314 295.252
C 307.531 295.235 300.933 295.676 294.481 295.195
C 292.067 295.015 288.908 293.565 289.772 290.519 Z"
opacity="1" fill="rgb(28,53,71)" fill-rule="evenodd" />
<path d="
M 289.963 329.608
C 290.221 326.08 293.819 326.249 296.504 326.234
C 303.072 326.198 309.654 326.092 316.221 326.181
C 318.843 326.217 321.469 327.138 321.166 330.283
C 320.858 333.473 317.882 333.654 315.311 333.708
C 308.741 333.847 301.985 334.123 295.427 333.695
C 292.878 333.529 289.728 332.817 289.963 329.608 Z"
opacity="1" fill="rgb(22,51,70)" fill-rule="evenodd" />
<path d="
M 289.906 343.101
C 290.304 339.834 293.548 339.596 296.168 339.574
C 302.716 339.52 309.289 339.478 315.836 339.594
C 318.264 339.637 321.397 340.428 321.096 343.543
C 320.767 346.957 317.75 347.317 314.953 347.281
C 308.59 347.2 302.199 347.542 295.841 347.279
C 293.39 347.178 289.495 346.475 289.906 343.101 Z"
opacity="1" fill="rgb(22,52,71)" fill-rule="evenodd" />
<path d="
M 292.407 496.601
C 294.311 486.904 297.706 478.742 305.265 472.05
C 319.332 459.596 342.792 460.608 356.02 473.596
C 362.794 480.246 365.968 489.245 366.224 498.641
C 366.285 500.879 367.167 506.121 365.145 507.694
C 364.001 508.584 362.004 508.265 360.663 508.259
C 357.108 508.242 353.554 508.278 349.999 508.29
C 336.047 508.338 322.072 508.338 308.138 508.654
C 311.309 522.951 327.455 529.303 340.581 525.13
C 345.354 523.612 348.272 519.929 352.476 517.62
C 355.462 518.694 358.571 521.825 361.041 523.808
C 361.78 524.401 363.281 525.418 363.304 526.432
C 362.397 529.319 358.686 531.817 356.308 533.474
C 348.876 538.651 340.677 541.264 331.62 541.372
C 324.778 541.453 317.793 539.914 311.738 536.672
C 297.335 528.962 290.184 512.505 292.407 496.601 Z
M 308.905 493.548
C 308.746 494.174 308.647 494.657 308.641 495.305
C 318.09 495.192 327.552 495.28 337.004 495.29
C 341.723 495.294 346.512 495.009 351.221 495.217
C 350.254 491.511 348.684 487.91 346.028 485.09
C 338.847 477.465 326.061 476.237 317.404 482.013
C 313.029 484.932 310.932 488.868 308.905 493.548 Z"
opacity="1" fill="rgb(23,50,67)" fill-rule="evenodd" />
<path d="
M 305.281 220.995
C 307.347 215.07 316.849 218.445 314.492 224.259
C 312.219 229.866 303.272 226.759 305.281 220.995 Z"
opacity="1" fill="rgb(27,48,66)" fill-rule="evenodd" />
<path d="
M 322.901 222.087
C 323.993 215.783 333.734 217.272 332.512 223.435
C 331.394 229.075 321.844 228.192 322.901 222.087 Z"
opacity="1" fill="rgb(25,53,73)" fill-rule="evenodd" />
<path d="
M 335.895 250.048
C 336.855 247.5 340.261 247.431 342.503 247.397
C 349.388 247.291 356.765 246.598 363.611 247.328
C 365.856 247.567 367.939 249.664 367.209 252.053
C 366.286 255.076 362.993 254.859 360.427 254.818
C 353.797 254.715 347.093 255.05 340.475 254.649
C 338.079 254.503 334.722 253.159 335.895 250.048 Z"
opacity="1" fill="rgb(22,50,68)" fill-rule="evenodd" />
<path d="
M 335.897 263.567
C 336.738 260.62 339.8 260.632 342.313 260.6
C 346.815 260.544 351.322 260.719 355.826 260.678
C 358.601 260.653 361.825 260.215 364.538 260.913
C 366.724 261.476 367.555 263.895 366.923 265.897
C 366.064 268.619 362.694 268.325 360.429 268.327
C 353.706 268.333 346.733 268.822 340.04 268.163
C 337.615 267.924 335.081 266.427 335.897 263.567 Z"
opacity="1" fill="rgb(24,52,71)" fill-rule="evenodd" />
<path d="
M 335.877 277.052
C 336.105 276.429 335.963 276.732 336.306 276.146
C 338.192 273.809 341.301 274.26 344.006 274.257
C 350.464 274.249 357.181 273.694 363.611 274.297
C 366.028 274.524 368.23 276.974 367.036 279.435
C 365.761 282.065 362.33 281.835 359.887 281.833
C 353.437 281.83 346.857 282.22 340.42 281.806
C 337.581 281.623 335.45 280.148 335.877 277.052 Z"
opacity="1" fill="rgb(24,53,69)" fill-rule="evenodd" />
<path d="
M 335.787 289.979
C 336.802 287.561 340.404 287.775 342.5 287.8
C 349.477 287.883 356.799 287.106 363.731 287.899
C 366.046 288.165 368.106 290.364 367.056 292.73
C 365.855 295.435 362.483 295.377 360.003 295.377
C 353.16 295.375 345.837 296.093 339.047 295.218
C 336.758 294.923 334.81 292.306 335.787 289.979 Z"
opacity="1" fill="rgb(26,54,72)" fill-rule="evenodd" />
<path d="
M 335.825 329.058
C 336.547 326.004 339.828 326.147 342.314 326.17
C 348.927 326.23 355.549 326.042 362.16 326.15
C 364.896 326.195 367.79 327.25 367.252 330.569
C 366.722 333.831 363.46 333.752 360.869 333.732
C 354.104 333.682 347.231 334.141 340.481 333.661
C 337.927 333.48 335.087 332.181 335.825 329.058 Z"
opacity="1" fill="rgb(22,51,70)" fill-rule="evenodd" />
<path d="
M 335.871 342.557
C 336.634 339.743 339.894 339.562 342.258 339.551
C 349.149 339.52 356.257 339.082 363.125 339.648
C 365.526 339.845 367.925 341.678 367.157 344.353
C 366.302 347.333 362.967 347.282 360.504 347.261
C 353.696 347.205 346.778 347.656 339.985 347.174
C 337.73 347.014 335.156 345.197 335.871 342.557 Z"
opacity="1" fill="rgb(24,53,70)" fill-rule="evenodd" />
<path d="
M 370.493 467.61
C 370.562 466.822 370.642 466.19 371.09 465.52
C 372.325 464.303 373.727 464.407 375.348 464.385
C 378.262 464.346 381.205 464.421 384.115 464.257
C 384.002 459.014 384.13 453.752 384.112 448.506
C 384.106 446.514 383.544 443.593 384.628 441.865
C 386.435 440.712 388.953 441.202 391.006 441.213
C 393.041 441.224 396.511 440.493 398.369 441.366
C 400.438 442.337 399.653 445.656 399.653 447.5
C 399.654 451.499 399.626 455.499 399.632 459.498
C 399.634 460.809 399.18 463.357 399.884 464.449
C 404.051 464.15 408.33 464.391 412.507 464.398
C 414.176 464.401 416.458 464.027 417.792 465.19
C 418.543 466.24 418.503 467.388 418.499 468.639
C 418.492 471.443 419.037 475.158 418.119 477.827
C 416.85 479.241 414.732 478.877 413.004 478.852
C 409.836 478.806 406.667 478.855 403.5 478.827
C 402.267 478.816 400.561 478.559 399.557 479.327
C 398.649 488.734 399.419 498.556 399.404 508.009
C 399.397 512.039 398.53 517.435 400.433 521.13
C 402.774 525.674 408.063 525.706 412.54 525.597
C 414.524 525.549 417.689 524.728 418.935 526.836
C 419.805 528.309 419.158 531.64 419.152 533.308
C 419.147 534.834 419.336 536.533 418.945 538.018
C 418.066 541.362 412.552 540.406 409.973 540.385
C 401.711 540.316 393.076 539.134 388.073 531.753
C 384.019 525.773 384.23 518.374 384.197 511.452
C 384.146 500.708 383.792 489.853 384.218 479.122
C 381.457 478.431 378.121 478.93 375.289 478.94
C 374.003 478.945 372.436 479.207 371.302 478.495
C 370.59 477.485 370.675 476.205 370.651 475.011
C 370.601 472.555 370.444 470.061 370.493 467.61 Z"
opacity="1" fill="rgb(24,51,68)" fill-rule="evenodd" />
<path d="
M 382.902 250.585
C 383.451 247.529 386.814 247.367 389.286 247.372
C 396.339 247.386 403.621 246.789 410.648 247.338
C 412.968 247.519 414.705 249.115 414.307 251.583
C 413.801 254.725 410.431 254.555 407.953 254.613
C 401.303 254.767 394.618 254.75 387.968 254.6
C 385.696 254.549 382.362 253.594 382.902 250.585 Z"
opacity="1" fill="rgb(24,52,71)" fill-rule="evenodd" />
<path d="
M 382.933 277.07
C 383.896 274.145 387.086 274.173 389.618 274.194
C 396.294 274.251 402.992 274.007 409.665 274.221
C 411.989 274.296 415.043 275.681 414.348 278.575
C 413.632 281.555 410.341 281.838 407.814 281.874
C 401.261 281.968 394.459 282.257 387.924 281.772
C 385.62 281.601 381.916 280.159 382.933 277.07 Z"
opacity="1" fill="rgb(25,53,68)" fill-rule="evenodd" />
<path d="
M 382.857 290.547
C 383.624 287.893 386.896 287.854 389.138 287.829
C 395.856 287.756 402.701 287.468 409.408 287.863
C 411.877 288.008 414.879 289.185 413.979 292.214
C 413.011 295.473 409.745 295.272 406.969 295.249
C 400.479 295.197 393.909 295.564 387.431 295.2
C 385.154 295.072 382.029 293.414 382.857 290.547 Z"
opacity="1" fill="rgb(28,55,70)" fill-rule="evenodd" />
<path d="
M 382.948 329.591
C 383.432 326.289 386.549 326.321 389.188 326.268
C 395.881 326.133 402.592 326.186 409.286 326.229
C 411.785 326.245 414.581 327.094 414.344 330.156
C 414.095 333.378 410.916 333.666 408.344 333.71
C 401.746 333.822 395.071 333.943 388.476 333.642
C 386.058 333.532 382.474 332.822 382.948 329.591 Z"
opacity="1" fill="rgb(24,51,71)" fill-rule="evenodd" />
<path d="
M 382.838 342.535
C 383.715 339.742 386.991 339.571 389.426 339.466
C 393.594 339.286 397.745 339.572 401.909 339.545
C 404.946 339.525 408.221 339.158 411.23 339.695
C 413.326 340.069 414.781 342.373 414.031 344.403
C 412.91 347.439 409.64 347.26 407.001 347.24
C 400.506 347.189 393.968 347.515 387.481 347.128
C 385.212 346.993 381.926 345.437 382.838 342.535 Z"
opacity="1" fill="rgb(23,53,72)" fill-rule="evenodd" />
<path d="
M 383.368 263.033
C 384.39 260.371 387.601 260.62 389.878 260.508
C 393.334 260.337 396.856 260.562 400.322 260.534
C 403.864 260.505 407.583 260.209 411.097 260.758
C 413.461 261.127 414.896 263.247 414.169 265.582
C 413.269 268.47 409.764 268.303 407.343 268.289
C 400.602 268.25 393.214 269.205 386.554 268.113
C 384.125 267.714 382.404 265.545 383.368 263.033 Z"
opacity="1" fill="rgb(25,52,72)" fill-rule="evenodd" />
<path d="
M 416.909 233.079
C 417.455 230.694 419.966 230.479 421.983 230.814
C 425.791 231.445 429.358 234.731 431.861 237.48
C 440.692 247.179 438.496 259.911 438.449 272.006
C 438.437 274.961 438.591 277.99 438.318 280.934
C 438.198 282.219 437.944 283.718 436.578 284.246
C 431.881 286.064 431.4 280.988 431.395 277.713
C 431.381 269.11 432.117 260.205 431.318 251.638
C 430.84 246.503 427.346 241.886 423.098 239.17
C 420.965 237.807 416.144 236.423 416.909 233.079 Z"
opacity="1" fill="rgb(26,54,68)" fill-rule="evenodd" />
<path d="
M 423.367 213.544
C 423.585 213.022 423.465 213.28 423.729 212.768
C 424.943 211.061 427.82 211.009 429.681 210.493
C 435.381 208.911 441.114 207.422 446.84 205.929
C 469.238 200.089 491.568 193.97 514.007 188.286
C 520.385 186.671 526.773 185.107 533.125 183.392
C 535.525 182.744 538.663 181.638 540.512 183.942
C 542.152 185.986 540.794 188.019 539.671 189.909
C 537.281 193.934 535.026 198.038 532.677 202.087
C 524.706 215.821 516.485 229.418 508.352 243.058
C 506.15 246.751 503.979 250.464 501.77 254.154
C 500.851 255.689 500.061 257.926 498.443 258.851
C 497.123 259.606 495.335 259.456 493.995 258.823
C 491.012 257.414 488.09 255.319 485.326 253.513
C 484.554 253.009 483.495 252.013 482.596 251.878
C 477.21 258.24 471.068 263.99 465.659 270.349
C 463.716 272.633 461.322 276.219 457.852 274.164
C 454.165 271.981 454.933 266.298 454.839 262.66
C 454.655 255.5 454.435 248.333 453.818 241.201
C 453.595 238.618 453.659 235.839 453.153 233.303
C 445.416 228.919 437.394 225.115 429.541 220.942
C 426.68 219.422 422.513 217.336 423.367 213.544 Z
M 435.719 215.965
C 435.748 216.099 435.776 216.233 435.805 216.367
C 440.194 218.845 445.041 220.723 449.549 223.016
C 451.05 223.779 453.372 225.708 455.059 225.741
C 455.997 225.759 457.116 224.856 457.932 224.453
C 460.458 223.203 462.972 221.927 465.473 220.629
C 474.291 216.051 483.082 211.411 491.877 206.791
C 496.757 204.228 501.775 201.832 506.565 199.113
C 507.675 198.484 508.869 198.056 510.023 197.525
C 510.216 197.436 511.324 197.093 511.259 196.818
C 511.06 195.979 507.736 197.187 507.104 197.355
C 502.633 198.544 498.109 199.568 493.657 200.819
C 483 203.813 472.221 206.392 461.523 209.242
C 452.939 211.529 444.382 213.994 435.719 215.965 Z
M 460.005 230.98
C 459.839 231.101 459.672 231.221 459.506 231.342
C 460.186 236.401 460.729 241.487 461.159 246.574
C 461.313 248.408 461.664 250.257 461.798 252.072
C 461.854 252.826 461.615 253.289 461.906 254.059
C 463.277 250.02 464.343 245.73 465.424 241.593
C 465.939 239.621 466.27 237.307 467.369 235.563
C 468.53 233.718 470.367 232.572 472.068 231.29
C 474.832 229.207 477.592 227.114 480.371 225.051
C 484.826 221.744 489.283 218.447 493.739 215.146
C 494.851 214.322 496.005 213.517 497.089 212.659
C 497.159 212.603 497.85 212.136 497.726 211.938
C 497.423 211.454 495.755 212.578 495.406 212.777
C 493.264 213.996 491.046 215.106 488.857 216.236
C 482.344 219.596 475.916 223.152 469.353 226.429
C 466.255 227.975 463.024 229.279 460.005 230.98 Z
M 468.474 255.82
C 468.514 256.028 470.699 253.45 471.04 253.087
C 472.783 251.227 474.691 249.188 476.728 247.654
C 476.744 247.292 475.899 246.845 475.601 246.605
C 474.522 245.734 473.46 244.774 472.151 244.268
C 471.113 247.994 470.277 252.404 468.474 255.82 Z
M 475.143 237.537
C 475.867 238.923 478.404 239.953 479.712 240.806
C 483.268 243.124 486.901 245.513 490.269 248.097
C 491.44 248.995 492.654 249.801 493.891 250.604
C 494.192 250.799 494.81 251.323 495.169 251.23
C 502.318 239.8 509.025 228.028 516.033 216.494
C 519.511 210.769 523.806 204.872 526.416 198.708
C 525.076 198.914 523.365 200.882 522.303 201.761
C 519.343 204.212 516.137 206.423 513.047 208.709
C 504.403 215.1 495.947 221.81 487.499 228.458
C 483.614 231.515 479.69 235.513 475.143 237.537 Z"
opacity="1" fill="rgb(22,50,67)" fill-rule="evenodd" />
<path d="
M 432.86 465.949
C 435.13 463.535 440.541 464.563 443.589 464.557
C 444.879 464.554 446.263 464.447 447.472 464.959
C 448.517 466.66 448.236 469.158 448.191 471.077
C 448.175 471.748 447.88 472.806 448.294 473.356
C 450.3 472.198 451.88 470.003 453.879 468.693
C 457.924 466.044 462.316 464.291 467.12 463.632
C 471.865 462.981 476.71 463.096 481.379 464.2
C 500.276 468.665 513.223 487.712 510.535 506.933
C 509.636 513.362 507.53 519.768 503.773 525.119
C 495.92 536.302 482.616 542.334 469.038 541.24
C 463.883 540.825 458.677 539.334 454.293 536.535
C 452.859 535.62 451.45 534.627 450.174 533.501
C 449.787 533.16 448.555 531.922 448.221 531.847
C 448.008 531.8 447.952 532.19 447.817 532.361
C 447.958 541.069 447.82 549.795 447.847 558.506
C 447.86 562.624 448.602 567.63 447.713 571.646
C 447.293 572.538 446.452 573.133 445.459 573.167
C 442.44 573.27 439.408 573.043 436.382 573.132
C 434.95 573.175 433.455 573.03 432.714 571.63
C 432.226 569.054 432.612 566.124 432.608 563.502
C 432.602 558.167 432.581 552.832 432.579 547.496
C 432.57 530.832 432.571 514.166 432.611 497.502
C 432.629 490.336 432.65 483.17 432.655 476.004
C 432.657 473.013 431.893 468.773 432.86 465.949 Z
M 447.908 499.613
C 446.642 511.379 453.985 523.045 465.816 525.671
C 469.401 526.467 472.954 526.25 476.517 525.464
C 479.401 524.829 482.179 523.668 484.625 522.006
C 487.56 520.012 489.728 517.255 491.521 514.234
C 493.371 511.116 494.254 507.565 494.563 503.974
C 495.216 496.382 492.021 488.783 486.184 483.912
C 478.225 477.271 465.294 476.855 457.015 483.075
C 454.502 484.964 452.534 487.394 450.991 490.116
C 449.347 493.016 448.264 496.296 447.908 499.613 Z"
opacity="1" fill="rgb(23,50,68)" fill-rule="evenodd" />
<path d="
M 523.73 435.95
C 524.91 434.303 526.355 434.447 528.176 434.497
C 530.764 434.567 533.377 434.629 535.964 434.511
C 537.502 434.442 539.062 434.125 540.144 435.484
C 541.001 436.562 540.614 438.227 540.61 439.496
C 540.601 441.999 540.585 444.503 540.619 447.005
C 540.634 448.17 540.892 449.528 540.463 450.636
C 539.095 452.227 537.351 452.018 535.459 451.983
C 533.035 451.937 530.56 451.817 528.14 451.967
C 526.677 452.058 525.009 452.287 524.023 450.94
C 523.25 449.883 523.627 448.23 523.64 447.001
C 523.679 443.43 523.151 439.467 523.73 435.95 Z"
opacity="1" fill="rgb(21,50,68)" fill-rule="evenodd" />
<path d="
M 524.493 537.624
C 525.106 531.698 524.619 525.462 524.613 519.504
C 524.602 508.503 524.615 497.502 524.596 486.501
C 524.588 481.834 524.601 477.167 524.59 472.5
C 524.585 470.469 524.119 467.831 524.837 465.92
C 525.972 464.67 527.406 464.792 528.967 464.852
C 531.524 464.949 534.088 464.902 536.644 464.836
C 537.992 464.801 539.551 464.809 540.117 466.321
C 540.758 468.032 540.194 470.695 540.163 472.499
C 540.083 477.165 540.101 481.834 540.102 486.501
C 540.105 498.334 540.068 510.168 540.088 522.001
C 540.095 525.834 540.116 529.667 540.103 533.5
C 540.097 535.178 540.406 537.12 539.976 538.743
C 539.059 539.694 537.805 539.93 536.529 539.963
C 534.19 540.022 531.843 539.92 529.503 539.949
C 527.756 539.971 526.064 540.138 524.683 538.89
C 524.5 538.44 524.487 538.112 524.493 537.624 Z"
opacity="1" fill="rgb(23,51,68)" fill-rule="evenodd" />
<path d="
M 559.401 428.102
C 559.527 427.469 559.452 427.805 559.634 427.096
C 560.536 425.949 561.799 425.929 563.166 425.906
C 565.472 425.867 567.778 425.927 570.083 425.933
C 571.78 425.936 573.146 425.697 574.536 426.806
C 575.582 428.411 574.747 432.571 574.738 434.504
C 574.709 441.171 574.725 447.837 574.733 454.504
C 574.756 474.004 574.689 493.504 574.713 513.003
C 574.72 519.003 574.734 525.004 574.728 531.004
C 574.726 533.353 575.339 536.523 574.639 538.755
C 573.981 539.478 573.168 539.934 572.186 540.054
C 569.258 540.412 565.972 540.091 563.009 540.096
C 561.688 540.098 560.519 539.98 559.604 538.94
C 558.517 536.073 559.339 531.561 559.326 528.501
C 559.293 520.834 559.306 513.168 559.313 505.502
C 559.327 488.667 559.398 471.832 559.388 454.997
C 559.382 446.076 558.876 437.007 559.401 428.102 Z"
opacity="1" fill="rgb(22,51,68)" fill-rule="evenodd" />
<path d="
M 588.471 499.104
C 589.627 483.924 599.446 470.788 613.684 465.389
C 633.323 457.942 658.14 468.507 664.505 488.998
C 666.155 494.307 666.991 499.896 666.558 505.471
C 666.127 511.01 664.729 516.529 662.083 521.433
C 659.634 525.972 656.405 529.883 652.351 533.074
C 632.138 548.983 600.584 540.969 591.015 516.932
C 588.782 511.322 588.013 505.112 588.471 499.104 Z
M 604.433 498.094
C 603.836 501.498 604.044 505.2 604.884 508.547
C 607.348 518.371 616.527 525.588 626.571 526.019
C 631.517 526.231 636.172 524.715 640.376 522.21
C 642.999 520.648 645.238 518.495 646.874 515.913
C 648.62 513.158 649.82 510.116 650.354 506.891
C 651.762 498.385 649.041 489.395 642.316 483.781
C 631.96 475.134 615.012 477.212 607.9 488.978
C 606.183 491.819 605.009 494.814 604.433 498.094 Z"
opacity="1" fill="rgb(23,50,67)" fill-rule="evenodd" />
<path d="
M 672.476 467.617
C 672.553 466.782 672.532 465.707 673.101 465.024
C 673.808 464.176 675.398 464.367 676.374 464.356
C 679.359 464.323 682.344 464.421 685.328 464.401
C 685.005 459.681 685.399 454.745 685.407 449.996
C 685.411 447.552 684.9 444.551 685.729 442.233
C 686.805 441.098 688.038 441.287 689.472 441.285
C 691.983 441.281 694.495 441.308 697.006 441.271
C 698.276 441.252 699.506 441.012 700.566 441.837
C 701.665 443.24 700.943 446.305 700.949 448.008
C 700.965 453.391 701.225 458.815 701.107 464.191
C 702.117 464.768 704.133 464.367 705.285 464.346
C 708.357 464.291 711.433 464.305 714.505 464.309
C 715.811 464.311 717.518 463.984 718.645 464.732
C 719.988 466.043 719.764 467.504 719.759 469.249
C 719.753 471.514 719.948 473.848 719.779 476.104
C 719.693 477.245 719.326 477.962 718.357 478.582
C 716.507 479.09 714.401 478.807 712.5 478.796
C 708.754 478.774 704.934 478.554 701.205 478.944
C 700.231 482.104 700.931 486.256 700.928 489.547
C 700.923 496.664 700.901 503.78 700.904 510.897
C 700.906 514.443 700.238 519.251 702.441 522.308
C 705.133 526.045 710.254 525.805 714.372 525.601
C 715.598 525.541 717.346 525.084 718.52 525.528
C 719.981 526.081 719.935 527.741 719.931 529.002
C 719.921 532.248 720.189 535.626 719.781 538.85
C 718.023 541.146 713.724 540.257 711.201 540.263
C 702.995 540.283 694.969 539.478 689.68 532.453
C 685.375 526.735 685.703 519.208 685.71 512.434
C 685.72 501.358 685.726 490.275 685.594 479.205
C 684.818 478.711 683.457 478.944 682.548 478.948
C 680.319 478.956 678.085 478.973 675.858 478.93
C 674.873 478.911 673.7 478.996 672.898 478.351
C 671.896 475.332 672.347 470.801 672.476 467.617 Z"
opacity="1" fill="rgb(23,50,68)" fill-rule="evenodd" />

</svg>