<svg xmlns="http://www.w3.org/2000/svg"
shape-rendering="geometricPrecision"
width="4000" height="4000" viewBox="0 0 754 754">
  <metadata>null</metadata>

<path d="
M 219.387 380.525
C 219.853 379.806 220.334 378.99 221.127 378.588
C 222.108 378.09 223.521 378.346 224.58 378.341
C 227.222 378.329 229.864 378.346 232.506 378.346
C 244.84 378.343 257.174 378.396 269.507 378.409
C 304.173 378.447 338.839 378.368 373.505 378.317
C 383.471 378.302 393.437 378.404 403.404 378.394
C 408.876 378.388 414.618 379.119 419.822 377.131
C 425.404 374.999 429.901 369.771 431.072 363.909
C 431.903 359.744 431.352 355.225 431.332 351.001
C 431.298 344.053 431.326 337.104 431.273 330.156
C 431.25 327.215 431.221 324.272 431.252 321.331
C 431.267 319.907 431.075 318.32 431.843 317.061
C 433.652 314.941 437.638 314.64 438.346 318.037
C 438.754 319.99 438.354 322.243 438.329 324.229
C 438.276 328.485 438.288 332.743 438.294 337
C 438.301 342.313 438.315 347.626 438.343 352.939
C 438.363 356.729 438.744 360.672 438.103 364.426
C 437.042 370.637 433.762 376.119 428.829 380.001
C 427.016 381.428 424.92 382.699 422.792 383.594
C 416.969 386.044 411.062 385.626 404.879 385.599
C 396.755 385.565 388.63 385.601 380.506 385.583
C 350.504 385.517 320.5 385.672 290.498 385.687
C 272.036 385.696 253.572 385.598 235.11 385.663
C 232.018 385.674 228.925 385.701 225.832 385.684
C 224.389 385.675 222.513 385.911 221.145 385.369
C 219.334 384.651 218.756 382.171 219.387 380.525 Z"
opacity="1" fill="rgb(22,51,69)" fill-rule="evenodd" />
<path d="
M 262.421 309.031
C 264.117 305.884 268.686 306.482 271.719 306.643
C 272.797 306.701 274.004 306.714 274.982 307.224
C 276.817 308.182 277.291 311.061 276.283 312.781
C 274.617 315.625 269.454 314.854 266.702 314.57
C 265.847 314.481 264.891 314.418 264.098 314.054
C 262.245 313.202 261.434 310.863 262.421 309.031 Z"
opacity="1" fill="rgb(239,115,61)" fill-rule="evenodd" />
<path d="
M 262.825 360.511
C 263.96 357.586 267.714 357.932 270.303 357.926
C 277.537 357.909 284.772 357.882 292.006 357.857
C 322.506 357.753 353.006 357.906 383.505 357.78
C 391.837 357.745 400.171 357.647 408.504 357.708
C 411.483 357.729 415.898 357.347 415.953 361.492
C 416.008 365.621 411.405 365.387 408.501 365.385
C 400.001 365.381 391.501 365.374 383.002 365.382
C 351.997 365.413 321.004 365.518 290 365.503
C 282.485 365.499 274.883 365.849 267.378 365.478
C 264.861 365.354 261.605 363.655 262.825 360.511 Z"
opacity="1" fill="rgb(237,117,58)" fill-rule="evenodd" />
<path d="
M 266.452 218.104
C 268.069 208.698 274.342 201.601 283.679 199.231
C 286.402 198.54 289.292 198.709 292.076 198.7
C 296.072 198.687 300.068 198.682 304.063 198.678
C 317.378 198.664 330.692 198.658 344.006 198.645
C 350.173 198.639 356.341 198.6 362.508 198.669
C 366.367 198.713 369.706 198.286 372.949 200.673
C 382.754 207.887 392.347 215.427 401.97 222.883
C 404.814 225.086 411.491 229.686 406.016 232.952
C 402.933 234.081 398.348 233.256 395.071 233.253
C 385.566 233.244 374.859 234.82 368.873 225.743
C 365.248 220.247 366.133 212.685 365.888 206.397
C 365.371 205.969 364.182 206.167 363.503 206.159
C 361.337 206.134 359.17 206.159 357.003 206.151
C 348.837 206.121 340.67 206.099 332.504 206.113
C 320.392 206.134 308.26 206.387 296.15 206.121
C 289.056 205.965 281.839 205.416 276.836 211.405
C 272.293 216.843 273.591 224.398 273.599 231
C 273.617 245.333 273.565 259.666 273.575 273.999
C 273.579 278.833 273.541 283.67 273.598 288.503
C 273.625 290.781 274.004 293.481 272.046 295.127
C 270.115 296.75 267.15 295.119 266.506 293.024
C 266.044 291.521 266.231 289.768 266.236 288.217
C 266.246 285.146 266.272 282.074 266.273 279.003
C 266.275 265.836 266.265 252.67 266.255 239.503
C 266.25 232.445 265.703 225.127 266.452 218.104 Z
M 372.916 211.619
C 372.523 216.414 372.963 223.479 378.256 225.558
C 380.606 226.481 384.028 225.778 386.502 225.728
C 388.138 225.695 389.787 225.674 391.423 225.695
C 391.841 225.701 392.677 225.879 393.053 225.662
C 389.458 222.18 385.103 219.186 381.091 216.181
C 378.477 214.224 375.98 211.68 372.943 210.476
C 372.934 210.857 372.925 211.238 372.916 211.619 Z"
opacity="1" fill="rgb(24,51,69)" fill-rule="evenodd" />
<path d="
M 266.428 328.572
C 267.413 325.453 272.164 324.787 273.339 328.186
C 273.932 329.901 273.489 332.087 273.442 333.867
C 273.347 337.406 274.601 342.491 273.216 345.792
C 271.968 348.767 267.769 348.002 266.576 345.398
C 265.925 343.977 266.204 342.023 266.214 340.502
C 266.232 337.836 266.258 335.169 266.253 332.503
C 266.25 331.27 266.053 329.762 266.428 328.572 Z"
opacity="1" fill="rgb(23,51,68)" fill-rule="evenodd" />
<path d="
M 286.877 221.573
C 288.193 215.629 297.861 217.365 296.509 223.271
C 295.12 229.339 285.522 227.698 286.877 221.573 Z"
opacity="1" fill="rgb(25,49,69)" fill-rule="evenodd" />
<path d="
M 287.94 310.596
C 288.45 307.2 291.706 306.741 294.5 306.708
C 300.833 306.635 307.172 306.683 313.506 306.728
C 341.084 306.923 368.68 306.812 396.258 306.589
C 400.927 306.552 405.768 306.691 410.402 306.077
C 419.551 304.865 428.408 301.361 435.746 295.714
C 439.092 293.138 442.007 290.23 444.795 287.075
C 446.233 285.447 447.259 283.442 448.96 282.047
C 450.973 280.395 454.446 280.602 454.959 283.62
C 455.428 286.374 452.751 288.906 451.168 290.854
C 446.318 296.823 440.562 302.029 433.98 306.018
C 419.953 314.518 404.304 314.296 388.501 314.277
C 373.001 314.258 357.501 314.372 342.001 314.361
C 328.016 314.35 314.034 314.59 300.055 314.595
C 297.158 314.596 293.133 315.134 290.38 314.114
C 288.961 313.588 287.699 312.201 287.94 310.596 Z"
opacity="1" fill="rgb(240,111,59)" fill-rule="evenodd" />
<path d="
M 289.86 250.052
C 290.075 249.421 289.94 249.731 290.269 249.126
C 292.143 246.929 294.974 247.215 297.606 247.254
C 302.239 247.323 306.87 247.327 311.502 247.365
C 313.649 247.383 316.002 247.092 318.117 247.497
C 320.402 247.934 321.757 250.626 320.565 252.692
C 319.116 255.205 315.468 254.662 312.998 254.678
C 306.826 254.721 300.593 254.975 294.427 254.678
C 291.622 254.543 289.419 253.156 289.86 250.052 Z"
opacity="1" fill="rgb(26,50,69)" fill-rule="evenodd" />
<path d="
M 289.978 264.629
C 290 263.693 290.15 262.871 290.711 262.105
C 292.504 260.154 295.63 260.636 298.063 260.631
C 304.404 260.615 311.298 259.78 317.573 260.77
C 320.168 261.179 321.781 263.548 320.552 266.055
C 319.35 268.505 316.18 268.27 313.841 268.279
C 307.841 268.301 301.806 268.512 295.808 268.316
C 293.192 268.23 290.228 267.822 289.978 264.629 Z"
opacity="1" fill="rgb(24,50,69)" fill-rule="evenodd" />
<path d="
M 289.904 277.612
C 290.197 274.24 293.528 274.165 296.177 274.18
C 302.897 274.22 309.67 273.944 316.383 274.214
C 318.8 274.311 321.328 275.647 320.956 278.459
C 320.507 281.849 317.157 281.832 314.485 281.888
C 308.124 282.02 301.705 282.033 295.348 281.768
C 292.693 281.657 289.613 280.957 289.904 277.612 Z"
opacity="1" fill="rgb(25,53,68)" fill-rule="evenodd" />
<path d="
M 289.772 290.519
C 290.574 287.693 293.847 287.781 296.198 287.765
C 302.76 287.719 309.393 287.524 315.948 287.841
C 318.421 287.961 321.996 288.977 320.994 292.208
C 320.014 295.371 316.723 295.259 314 295.252
C 307.531 295.235 300.933 295.676 294.481 295.195
C 292.067 295.015 288.908 293.565 289.772 290.519 Z"
opacity="1" fill="rgb(28,53,71)" fill-rule="evenodd" />
<path d="
M 289.963 329.608
C 290.221 326.08 293.819 326.249 296.504 326.234
C 303.072 326.198 309.654 326.092 316.221 326.181
C 318.843 326.217 321.469 327.138 321.166 330.283
C 320.858 333.473 317.882 333.654 315.311 333.708
C 308.741 333.847 301.985 334.123 295.427 333.695
C 292.878 333.529 289.728 332.817 289.963 329.608 Z"
opacity="1" fill="rgb(22,51,70)" fill-rule="evenodd" />
<path d="
M 289.906 343.101
C 290.304 339.834 293.548 339.596 296.168 339.574
C 302.716 339.52 309.289 339.478 315.836 339.594
C 318.264 339.637 321.397 340.428 321.096 343.543
C 320.767 346.957 317.75 347.317 314.953 347.281
C 308.59 347.2 302.199 347.542 295.841 347.279
C 293.39 347.178 289.495 346.475 289.906 343.101 Z"
opacity="1" fill="rgb(22,52,71)" fill-rule="evenodd" />
<path d="
M 305.281 220.995
C 307.347 215.07 316.849 218.445 314.492 224.259
C 312.219 229.866 303.272 226.759 305.281 220.995 Z"
opacity="1" fill="rgb(27,48,66)" fill-rule="evenodd" />
<path d="
M 322.901 222.087
C 323.993 215.783 333.734 217.272 332.512 223.435
C 331.394 229.075 321.844 228.192 322.901 222.087 Z"
opacity="1" fill="rgb(25,53,73)" fill-rule="evenodd" />
<path d="
M 335.895 250.048
C 336.855 247.5 340.261 247.431 342.503 247.397
C 349.388 247.291 356.765 246.598 363.611 247.328
C 365.856 247.567 367.939 249.664 367.209 252.053
C 366.286 255.076 362.993 254.859 360.427 254.818
C 353.797 254.715 347.093 255.05 340.475 254.649
C 338.079 254.503 334.722 253.159 335.895 250.048 Z"
opacity="1" fill="rgb(22,50,68)" fill-rule="evenodd" />
<path d="
M 335.897 263.567
C 336.738 260.62 339.8 260.632 342.313 260.6
C 346.815 260.544 351.322 260.719 355.826 260.678
C 358.601 260.653 361.825 260.215 364.538 260.913
C 366.724 261.476 367.555 263.895 366.923 265.897
C 366.064 268.619 362.694 268.325 360.429 268.327
C 353.706 268.333 346.733 268.822 340.04 268.163
C 337.615 267.924 335.081 266.427 335.897 263.567 Z"
opacity="1" fill="rgb(24,52,71)" fill-rule="evenodd" />
<path d="
M 335.877 277.052
C 336.105 276.429 335.963 276.732 336.306 276.146
C 338.192 273.809 341.301 274.26 344.006 274.257
C 350.464 274.249 357.181 273.694 363.611 274.297
C 366.028 274.524 368.23 276.974 367.036 279.435
C 365.761 282.065 362.33 281.835 359.887 281.833
C 353.437 281.83 346.857 282.22 340.42 281.806
C 337.581 281.623 335.45 280.148 335.877 277.052 Z"
opacity="1" fill="rgb(24,53,69)" fill-rule="evenodd" />
<path d="
M 335.787 289.979
C 336.802 287.561 340.404 287.775 342.5 287.8
C 349.477 287.883 356.799 287.106 363.731 287.899
C 366.046 288.165 368.106 290.364 367.056 292.73
C 365.855 295.435 362.483 295.377 360.003 295.377
C 353.16 295.375 345.837 296.093 339.047 295.218
C 336.758 294.923 334.81 292.306 335.787 289.979 Z"
opacity="1" fill="rgb(26,54,72)" fill-rule="evenodd" />
<path d="
M 335.825 329.058
C 336.547 326.004 339.828 326.147 342.314 326.17
C 348.927 326.23 355.549 326.042 362.16 326.15
C 364.896 326.195 367.79 327.25 367.252 330.569
C 366.722 333.831 363.46 333.752 360.869 333.732
C 354.104 333.682 347.231 334.141 340.481 333.661
C 337.927 333.48 335.087 332.181 335.825 329.058 Z"
opacity="1" fill="rgb(22,51,70)" fill-rule="evenodd" />
<path d="
M 335.871 342.557
C 336.634 339.743 339.894 339.562 342.258 339.551
C 349.149 339.52 356.257 339.082 363.125 339.648
C 365.526 339.845 367.925 341.678 367.157 344.353
C 366.302 347.333 362.967 347.282 360.504 347.261
C 353.696 347.205 346.778 347.656 339.985 347.174
C 337.73 347.014 335.156 345.197 335.871 342.557 Z"
opacity="1" fill="rgb(24,53,70)" fill-rule="evenodd" />
<path d="
M 382.902 250.585
C 383.451 247.529 386.814 247.367 389.286 247.372
C 396.339 247.386 403.621 246.789 410.648 247.338
C 412.968 247.519 414.705 249.115 414.307 251.583
C 413.801 254.725 410.431 254.555 407.953 254.613
C 401.303 254.767 394.618 254.75 387.968 254.6
C 385.696 254.549 382.362 253.594 382.902 250.585 Z"
opacity="1" fill="rgb(24,52,71)" fill-rule="evenodd" />
<path d="
M 382.933 277.07
C 383.896 274.145 387.086 274.173 389.618 274.194
C 396.294 274.251 402.992 274.007 409.665 274.221
C 411.989 274.296 415.043 275.681 414.348 278.575
C 413.632 281.555 410.341 281.838 407.814 281.874
C 401.261 281.968 394.459 282.257 387.924 281.772
C 385.62 281.601 381.916 280.159 382.933 277.07 Z"
opacity="1" fill="rgb(25,53,68)" fill-rule="evenodd" />
<path d="
M 382.857 290.547
C 383.624 287.893 386.896 287.854 389.138 287.829
C 395.856 287.756 402.701 287.468 409.408 287.863
C 411.877 288.008 414.879 289.185 413.979 292.214
C 413.011 295.473 409.745 295.272 406.969 295.249
C 400.479 295.197 393.909 295.564 387.431 295.2
C 385.154 295.072 382.029 293.414 382.857 290.547 Z"
opacity="1" fill="rgb(28,55,70)" fill-rule="evenodd" />
<path d="
M 382.948 329.591
C 383.432 326.289 386.549 326.321 389.188 326.268
C 395.881 326.133 402.592 326.186 409.286 326.229
C 411.785 326.245 414.581 327.094 414.344 330.156
C 414.095 333.378 410.916 333.666 408.344 333.71
C 401.746 333.822 395.071 333.943 388.476 333.642
C 386.058 333.532 382.474 332.822 382.948 329.591 Z"
opacity="1" fill="rgb(24,51,71)" fill-rule="evenodd" />
<path d="
M 382.838 342.535
C 383.715 339.742 386.991 339.571 389.426 339.466
C 393.594 339.286 397.745 339.572 401.909 339.545
C 404.946 339.525 408.221 339.158 411.23 339.695
C 413.326 340.069 414.781 342.373 414.031 344.403
C 412.91 347.439 409.64 347.26 407.001 347.24
C 400.506 347.189 393.968 347.515 387.481 347.128
C 385.212 346.993 381.926 345.437 382.838 342.535 Z"
opacity="1" fill="rgb(23,53,72)" fill-rule="evenodd" />
<path d="
M 383.368 263.033
C 384.39 260.371 387.601 260.62 389.878 260.508
C 393.334 260.337 396.856 260.562 400.322 260.534
C 403.864 260.505 407.583 260.209 411.097 260.758
C 413.461 261.127 414.896 263.247 414.169 265.582
C 413.269 268.47 409.764 268.303 407.343 268.289
C 400.602 268.25 393.214 269.205 386.554 268.113
C 384.125 267.714 382.404 265.545 383.368 263.033 Z"
opacity="1" fill="rgb(25,52,72)" fill-rule="evenodd" />
<path d="
M 416.909 233.079
C 417.455 230.694 419.966 230.479 421.983 230.814
C 425.791 231.445 429.358 234.731 431.861 237.48
C 440.692 247.179 438.496 259.911 438.449 272.006
C 438.437 274.961 438.591 277.99 438.318 280.934
C 438.198 282.219 437.944 283.718 436.578 284.246
C 431.881 286.064 431.4 280.988 431.395 277.713
C 431.381 269.11 432.117 260.205 431.318 251.638
C 430.84 246.503 427.346 241.886 423.098 239.17
C 420.965 237.807 416.144 236.423 416.909 233.079 Z"
opacity="1" fill="rgb(26,54,68)" fill-rule="evenodd" />
<path d="
M 423.367 213.544
C 423.585 213.022 423.465 213.28 423.729 212.768
C 424.943 211.061 427.82 211.009 429.681 210.493
C 435.381 208.911 441.114 207.422 446.84 205.929
C 469.238 200.089 491.568 193.97 514.007 188.286
C 520.385 186.671 526.773 185.107 533.125 183.392
C 535.525 182.744 538.663 181.638 540.512 183.942
C 542.152 185.986 540.794 188.019 539.671 189.909
C 537.281 193.934 535.026 198.038 532.677 202.087
C 524.706 215.821 516.485 229.418 508.352 243.058
C 506.15 246.751 503.979 250.464 501.77 254.154
C 500.851 255.689 500.061 257.926 498.443 258.851
C 497.123 259.606 495.335 259.456 493.995 258.823
C 491.012 257.414 488.09 255.319 485.326 253.513
C 484.554 253.009 483.495 252.013 482.596 251.878
C 477.21 258.24 471.068 263.99 465.659 270.349
C 463.716 272.633 461.322 276.219 457.852 274.164
C 454.165 271.981 454.933 266.298 454.839 262.66
C 454.655 255.5 454.435 248.333 453.818 241.201
C 453.595 238.618 453.659 235.839 453.153 233.303
C 445.416 228.919 437.394 225.115 429.541 220.942
C 426.68 219.422 422.513 217.336 423.367 213.544 Z
M 435.719 215.965
C 435.748 216.099 435.776 216.233 435.805 216.367
C 440.194 218.845 445.041 220.723 449.549 223.016
C 451.05 223.779 453.372 225.708 455.059 225.741
C 455.997 225.759 457.116 224.856 457.932 224.453
C 460.458 223.203 462.972 221.927 465.473 220.629
C 474.291 216.051 483.082 211.411 491.877 206.791
C 496.757 204.228 501.775 201.832 506.565 199.113
C 507.675 198.484 508.869 198.056 510.023 197.525
C 510.216 197.436 511.324 197.093 511.259 196.818
C 511.06 195.979 507.736 197.187 507.104 197.355
C 502.633 198.544 498.109 199.568 493.657 200.819
C 483 203.813 472.221 206.392 461.523 209.242
C 452.939 211.529 444.382 213.994 435.719 215.965 Z
M 460.005 230.98
C 459.839 231.101 459.672 231.221 459.506 231.342
C 460.186 236.401 460.729 241.487 461.159 246.574
C 461.313 248.408 461.664 250.257 461.798 252.072
C 461.854 252.826 461.615 253.289 461.906 254.059
C 463.277 250.02 464.343 245.73 465.424 241.593
C 465.939 239.621 466.27 237.307 467.369 235.563
C 468.53 233.718 470.367 232.572 472.068 231.29
C 474.832 229.207 477.592 227.114 480.371 225.051
C 484.826 221.744 489.283 218.447 493.739 215.146
C 494.851 214.322 496.005 213.517 497.089 212.659
C 497.159 212.603 497.85 212.136 497.726 211.938
C 497.423 211.454 495.755 212.578 495.406 212.777
C 493.264 213.996 491.046 215.106 488.857 216.236
C 482.344 219.596 475.916 223.152 469.353 226.429
C 466.255 227.975 463.024 229.279 460.005 230.98 Z
M 468.474 255.82
C 468.514 256.028 470.699 253.45 471.04 253.087
C 472.783 251.227 474.691 249.188 476.728 247.654
C 476.744 247.292 475.899 246.845 475.601 246.605
C 474.522 245.734 473.46 244.774 472.151 244.268
C 471.113 247.994 470.277 252.404 468.474 255.82 Z
M 475.143 237.537
C 475.867 238.923 478.404 239.953 479.712 240.806
C 483.268 243.124 486.901 245.513 490.269 248.097
C 491.44 248.995 492.654 249.801 493.891 250.604
C 494.192 250.799 494.81 251.323 495.169 251.23
C 502.318 239.8 509.025 228.028 516.033 216.494
C 519.511 210.769 523.806 204.872 526.416 198.708
C 525.076 198.914 523.365 200.882 522.303 201.761
C 519.343 204.212 516.137 206.423 513.047 208.709
C 504.403 215.1 495.947 221.81 487.499 228.458
C 483.614 231.515 479.69 235.513 475.143 237.537 Z"
opacity="1" fill="rgb(22,50,67)" fill-rule="evenodd" />

</svg>

